<svg width="24" height="24" viewBox="0 0 24 24" fill="none" xmlns="http://www.w3.org/2000/svg">
<path d="M20 13C20 18 16.5 20.5 12.34 21.95C12.1222 22.0238 11.8855 22.0203 11.67 21.94C7.5 20.5 4 18 4 13V6C4 5.44809 4.44808 5 5 5C7 5 9.5 3.8 11.24 2.28C11.6777 1.90607 12.3223 1.90607 12.76 2.28C14.51 3.81 17 5 19 5C19.5523 5 20 5.44772 20 6V13" stroke="#64748B" stroke-width="2" stroke-linecap="round" stroke-linejoin="round"/>
<path d="M9 12L11 14L15 10" stroke="#64748B" stroke-width="2" stroke-linecap="round" stroke-linejoin="round"/>
</svg>
